<?xml version="1.0" encoding="UTF-8" standalone="no"?>
<!DOCTYPE svg PUBLIC "-//W3C//DTD SVG 1.1//EN" "http://www.w3.org/Graphics/SVG/1.1/DTD/svg11.dtd">
<svg width="100%" height="100%" viewBox="0 0 226 86" version="1.1" xmlns="http://www.w3.org/2000/svg" xmlns:xlink="http://www.w3.org/1999/xlink" xml:space="preserve" xmlns:serif="http://www.serif.com/" style="fill-rule:evenodd;clip-rule:evenodd;stroke-linejoin:round;stroke-miterlimit:2;">
    <g transform="matrix(1,0,0,1,-199.87,-192.239)">
        <g transform="matrix(0.420733,0,0,0.420733,159.994,121.72)">
            <g transform="matrix(114.073,0,0,114.073,88.4981,256)">
                <path d="M0.229,-0.311L0.229,0L0.055,0L0.055,-0.545L0.22,-0.545L0.22,-0.445L0.226,-0.445C0.238,-0.478 0.259,-0.505 0.288,-0.524C0.317,-0.543 0.352,-0.553 0.392,-0.553C0.43,-0.553 0.464,-0.544 0.492,-0.527C0.52,-0.51 0.542,-0.486 0.558,-0.455C0.574,-0.424 0.582,-0.389 0.581,-0.348L0.581,0L0.408,0L0.408,-0.314C0.408,-0.344 0.4,-0.368 0.385,-0.385C0.369,-0.402 0.348,-0.41 0.32,-0.41C0.293,-0.41 0.271,-0.401 0.254,-0.384C0.237,-0.366 0.229,-0.342 0.229,-0.311Z" style="fill-rule:nonzero;"/>
            </g>
            <g transform="matrix(114.073,0,0,114.073,158.28,256)">
                <path d="M0.407,-0.235L0.407,-0.545L0.58,-0.545L0.58,0L0.415,0L0.415,-0.102L0.409,-0.102C0.397,-0.068 0.376,-0.042 0.347,-0.022C0.318,-0.003 0.283,0.007 0.243,0.007C0.205,0.007 0.172,-0.001 0.144,-0.018C0.116,-0.036 0.094,-0.059 0.079,-0.09C0.063,-0.121 0.055,-0.157 0.055,-0.198L0.055,-0.545L0.229,-0.545L0.229,-0.232C0.229,-0.202 0.237,-0.179 0.252,-0.162C0.268,-0.145 0.288,-0.136 0.315,-0.136C0.341,-0.136 0.363,-0.145 0.38,-0.162C0.398,-0.179 0.407,-0.204 0.407,-0.235Z" style="fill-rule:nonzero;"/>
            </g>
            <g transform="matrix(114.073,0,0,114.073,228.224,256)">
                <path d="M0.055,0L0.055,-0.545L0.22,-0.545L0.22,-0.445L0.226,-0.445C0.238,-0.478 0.257,-0.505 0.284,-0.524C0.311,-0.543 0.343,-0.553 0.38,-0.553C0.418,-0.553 0.451,-0.543 0.478,-0.523C0.505,-0.504 0.522,-0.478 0.529,-0.445L0.535,-0.445C0.545,-0.478 0.565,-0.504 0.594,-0.523C0.624,-0.543 0.659,-0.553 0.699,-0.553C0.751,-0.553 0.793,-0.536 0.825,-0.503C0.857,-0.47 0.873,-0.425 0.873,-0.367L0.873,0L0.7,0L0.7,-0.327C0.7,-0.355 0.693,-0.375 0.678,-0.39C0.664,-0.404 0.646,-0.411 0.624,-0.411C0.6,-0.411 0.582,-0.403 0.568,-0.388C0.554,-0.372 0.548,-0.352 0.548,-0.326L0.548,0L0.381,0L0.381,-0.329C0.381,-0.355 0.374,-0.375 0.36,-0.389C0.346,-0.404 0.328,-0.411 0.306,-0.411C0.283,-0.411 0.265,-0.403 0.25,-0.387C0.236,-0.371 0.229,-0.35 0.229,-0.323L0.229,0L0.055,0Z" style="fill-rule:nonzero;"/>
            </g>
            <g transform="matrix(114.073,0,0,114.073,331.304,256)">
                <path d="M0.31,0.01C0.224,0.01 0.157,-0.015 0.108,-0.065C0.059,-0.115 0.034,-0.183 0.034,-0.271C0.034,-0.327 0.045,-0.376 0.067,-0.419C0.09,-0.461 0.121,-0.494 0.162,-0.517C0.202,-0.541 0.25,-0.553 0.305,-0.553C0.356,-0.553 0.402,-0.542 0.442,-0.52C0.482,-0.499 0.513,-0.468 0.535,-0.426C0.558,-0.385 0.569,-0.334 0.569,-0.274L0.569,-0.231L0.205,-0.231L0.205,-0.226C0.205,-0.193 0.215,-0.166 0.234,-0.146C0.253,-0.125 0.28,-0.115 0.313,-0.115C0.336,-0.115 0.356,-0.12 0.373,-0.129C0.389,-0.139 0.401,-0.153 0.408,-0.171L0.567,-0.166C0.557,-0.113 0.53,-0.07 0.485,-0.038C0.44,-0.006 0.382,0.01 0.31,0.01ZM0.205,-0.332L0.407,-0.332C0.407,-0.36 0.398,-0.383 0.379,-0.4C0.36,-0.418 0.337,-0.427 0.308,-0.427C0.279,-0.427 0.255,-0.418 0.236,-0.4C0.217,-0.382 0.206,-0.359 0.205,-0.332Z" style="fill-rule:nonzero;"/>
            </g>
            <g transform="matrix(114.073,0,0,114.073,397.521,256)">
                <path d="M0.055,0L0.055,-0.545L0.224,-0.545L0.224,-0.446L0.229,-0.446C0.239,-0.482 0.256,-0.509 0.278,-0.526C0.301,-0.544 0.327,-0.553 0.357,-0.553C0.373,-0.553 0.389,-0.551 0.405,-0.547L0.405,-0.396C0.397,-0.398 0.386,-0.401 0.373,-0.402C0.359,-0.404 0.347,-0.405 0.337,-0.405C0.306,-0.405 0.28,-0.395 0.26,-0.375C0.239,-0.355 0.229,-0.329 0.229,-0.296L0.229,0L0.055,0Z" style="fill-rule:nonzero;"/>
            </g>
            <g transform="matrix(114.073,0,0,114.073,442.998,256)">
                <path d="M0.055,0L0.055,-0.545L0.229,-0.545L0.229,0L0.055,0ZM0.142,-0.609C0.118,-0.609 0.097,-0.617 0.079,-0.633C0.062,-0.65 0.053,-0.669 0.053,-0.692C0.053,-0.715 0.062,-0.735 0.079,-0.751C0.097,-0.767 0.118,-0.775 0.142,-0.775C0.167,-0.775 0.188,-0.767 0.205,-0.751C0.222,-0.735 0.231,-0.715 0.231,-0.692C0.231,-0.669 0.222,-0.65 0.205,-0.633C0.188,-0.617 0.167,-0.609 0.142,-0.609Z" style="fill-rule:nonzero;"/>
            </g>
            <g transform="matrix(114.073,0,0,114.073,472.798,256)">
                <path d="M0.31,0.01C0.252,0.01 0.203,-0.002 0.162,-0.025C0.121,-0.049 0.089,-0.082 0.067,-0.124C0.045,-0.167 0.034,-0.216 0.034,-0.271C0.034,-0.327 0.045,-0.376 0.067,-0.418C0.089,-0.46 0.121,-0.493 0.162,-0.517C0.203,-0.541 0.252,-0.553 0.309,-0.553C0.36,-0.553 0.404,-0.543 0.441,-0.525C0.479,-0.507 0.508,-0.481 0.529,-0.448C0.55,-0.415 0.562,-0.376 0.563,-0.331L0.401,-0.331C0.397,-0.359 0.388,-0.381 0.372,-0.397C0.357,-0.413 0.337,-0.42 0.312,-0.42C0.281,-0.42 0.257,-0.408 0.239,-0.383C0.22,-0.357 0.211,-0.321 0.211,-0.273C0.211,-0.224 0.22,-0.187 0.238,-0.162C0.257,-0.137 0.281,-0.124 0.312,-0.124C0.336,-0.124 0.356,-0.132 0.372,-0.147C0.388,-0.163 0.397,-0.185 0.401,-0.214L0.563,-0.214C0.561,-0.169 0.55,-0.129 0.529,-0.096C0.509,-0.062 0.48,-0.036 0.442,-0.018C0.405,0.001 0.361,0.01 0.31,0.01Z" style="fill-rule:nonzero;"/>
            </g>
            <g transform="matrix(114.073,0,0,114.073,538.326,256)">
                <path d="M0.209,0.009C0.157,0.009 0.114,-0.004 0.08,-0.031C0.046,-0.057 0.029,-0.097 0.029,-0.151C0.029,-0.192 0.039,-0.224 0.057,-0.247C0.076,-0.271 0.1,-0.289 0.131,-0.3C0.162,-0.312 0.196,-0.319 0.232,-0.322C0.279,-0.326 0.312,-0.331 0.332,-0.337C0.352,-0.343 0.362,-0.354 0.362,-0.371L0.362,-0.373C0.362,-0.391 0.355,-0.405 0.343,-0.415C0.33,-0.425 0.313,-0.43 0.292,-0.43C0.269,-0.43 0.25,-0.425 0.237,-0.415C0.223,-0.405 0.214,-0.391 0.21,-0.374L0.05,-0.379C0.057,-0.429 0.081,-0.47 0.122,-0.503C0.163,-0.536 0.22,-0.553 0.293,-0.553C0.34,-0.553 0.381,-0.545 0.417,-0.531C0.454,-0.517 0.482,-0.496 0.503,-0.469C0.524,-0.442 0.535,-0.409 0.535,-0.371L0.535,0L0.371,0L0.371,-0.076L0.367,-0.076C0.337,-0.019 0.284,0.009 0.209,0.009ZM0.262,-0.104C0.29,-0.104 0.314,-0.113 0.333,-0.129C0.353,-0.146 0.363,-0.167 0.363,-0.194L0.363,-0.246C0.353,-0.241 0.339,-0.236 0.322,-0.233C0.304,-0.229 0.287,-0.226 0.271,-0.224C0.22,-0.216 0.194,-0.195 0.194,-0.16C0.194,-0.142 0.2,-0.128 0.213,-0.119C0.226,-0.109 0.242,-0.104 0.262,-0.104Z" style="fill-rule:nonzero;"/>
            </g>
            <g transform="matrix(114.073,0,0,114.073,602.559,256)">
                <rect x="0.055" y="-0.727" width="0.174" height="0.727" style="fill-rule:nonzero;"/>
            </g>
            <g transform="matrix(114.073,0,0,114.073,88.4981,370.073)">
                <path d="M0.055,0L0.055,-0.545L0.224,-0.545L0.224,-0.446L0.229,-0.446C0.239,-0.482 0.256,-0.509 0.278,-0.526C0.301,-0.544 0.327,-0.553 0.357,-0.553C0.373,-0.553 0.389,-0.551 0.405,-0.547L0.405,-0.396C0.397,-0.398 0.386,-0.401 0.373,-0.402C0.359,-0.404 0.347,-0.405 0.337,-0.405C0.306,-0.405 0.28,-0.395 0.26,-0.375C0.239,-0.355 0.229,-0.329 0.229,-0.296L0.229,0L0.055,0Z" style="fill-rule:nonzero;"/>
            </g>
            <g transform="matrix(114.073,0,0,114.073,135.271,370.073)">
                <path d="M0.31,0.01C0.224,0.01 0.157,-0.015 0.108,-0.065C0.059,-0.115 0.034,-0.183 0.034,-0.271C0.034,-0.327 0.045,-0.376 0.067,-0.419C0.09,-0.461 0.121,-0.494 0.162,-0.517C0.202,-0.541 0.25,-0.553 0.305,-0.553C0.356,-0.553 0.402,-0.542 0.442,-0.52C0.482,-0.499 0.513,-0.468 0.535,-0.426C0.558,-0.385 0.569,-0.334 0.569,-0.274L0.569,-0.231L0.205,-0.231L0.205,-0.226C0.205,-0.193 0.215,-0.166 0.234,-0.146C0.253,-0.125 0.28,-0.115 0.313,-0.115C0.336,-0.115 0.356,-0.12 0.373,-0.129C0.389,-0.139 0.401,-0.153 0.408,-0.171L0.567,-0.166C0.557,-0.113 0.53,-0.07 0.485,-0.038C0.44,-0.006 0.382,0.01 0.31,0.01ZM0.205,-0.332L0.407,-0.332C0.407,-0.36 0.398,-0.383 0.379,-0.4C0.36,-0.418 0.337,-0.427 0.308,-0.427C0.279,-0.427 0.255,-0.418 0.236,-0.4C0.217,-0.382 0.206,-0.359 0.205,-0.332Z" style="fill-rule:nonzero;"/>
            </g>
            <g transform="matrix(114.073,0,0,114.073,202.785,370.073)">
                <path d="M0.365,-0.545L0.365,-0.418L0.261,-0.418L0.261,0L0.088,0L0.088,-0.418L0.014,-0.418L0.014,-0.545L0.088,-0.545L0.088,-0.573C0.088,-0.636 0.105,-0.684 0.14,-0.715C0.174,-0.746 0.22,-0.761 0.275,-0.761C0.299,-0.761 0.322,-0.76 0.343,-0.756C0.365,-0.752 0.381,-0.749 0.391,-0.746L0.363,-0.619C0.357,-0.621 0.349,-0.623 0.34,-0.624C0.331,-0.626 0.323,-0.626 0.314,-0.626C0.294,-0.626 0.28,-0.622 0.273,-0.613C0.265,-0.604 0.261,-0.592 0.261,-0.576L0.261,-0.545L0.365,-0.545Z" style="fill-rule:nonzero;"/>
            </g>
            <g transform="matrix(114.073,0,0,114.073,246.438,370.073)">
                <path d="M0.31,0.01C0.224,0.01 0.157,-0.015 0.108,-0.065C0.059,-0.115 0.034,-0.183 0.034,-0.271C0.034,-0.327 0.045,-0.376 0.067,-0.419C0.09,-0.461 0.121,-0.494 0.162,-0.517C0.202,-0.541 0.25,-0.553 0.305,-0.553C0.356,-0.553 0.402,-0.542 0.442,-0.52C0.482,-0.499 0.513,-0.468 0.535,-0.426C0.558,-0.385 0.569,-0.334 0.569,-0.274L0.569,-0.231L0.205,-0.231L0.205,-0.226C0.205,-0.193 0.215,-0.166 0.234,-0.146C0.253,-0.125 0.28,-0.115 0.313,-0.115C0.336,-0.115 0.356,-0.12 0.373,-0.129C0.389,-0.139 0.401,-0.153 0.408,-0.171L0.567,-0.166C0.557,-0.113 0.53,-0.07 0.485,-0.038C0.44,-0.006 0.382,0.01 0.31,0.01ZM0.205,-0.332L0.407,-0.332C0.407,-0.36 0.398,-0.383 0.379,-0.4C0.36,-0.418 0.337,-0.427 0.308,-0.427C0.279,-0.427 0.255,-0.418 0.236,-0.4C0.217,-0.382 0.206,-0.359 0.205,-0.332Z" style="fill-rule:nonzero;"/>
            </g>
            <g transform="matrix(114.073,0,0,114.073,313.952,370.073)">
                <path d="M0.055,0L0.055,-0.545L0.224,-0.545L0.224,-0.446L0.229,-0.446C0.239,-0.482 0.256,-0.509 0.278,-0.526C0.301,-0.544 0.327,-0.553 0.357,-0.553C0.373,-0.553 0.389,-0.551 0.405,-0.547L0.405,-0.396C0.397,-0.398 0.386,-0.401 0.373,-0.402C0.359,-0.404 0.347,-0.405 0.337,-0.405C0.306,-0.405 0.28,-0.395 0.26,-0.375C0.239,-0.355 0.229,-0.329 0.229,-0.296L0.229,0L0.055,0Z" style="fill-rule:nonzero;"/>
            </g>
            <g transform="matrix(114.073,0,0,114.073,360.725,370.073)">
                <path d="M0.31,0.01C0.224,0.01 0.157,-0.015 0.108,-0.065C0.059,-0.115 0.034,-0.183 0.034,-0.271C0.034,-0.327 0.045,-0.376 0.067,-0.419C0.09,-0.461 0.121,-0.494 0.162,-0.517C0.202,-0.541 0.25,-0.553 0.305,-0.553C0.356,-0.553 0.402,-0.542 0.442,-0.52C0.482,-0.499 0.513,-0.468 0.535,-0.426C0.558,-0.385 0.569,-0.334 0.569,-0.274L0.569,-0.231L0.205,-0.231L0.205,-0.226C0.205,-0.193 0.215,-0.166 0.234,-0.146C0.253,-0.125 0.28,-0.115 0.313,-0.115C0.336,-0.115 0.356,-0.12 0.373,-0.129C0.389,-0.139 0.401,-0.153 0.408,-0.171L0.567,-0.166C0.557,-0.113 0.53,-0.07 0.485,-0.038C0.44,-0.006 0.382,0.01 0.31,0.01ZM0.205,-0.332L0.407,-0.332C0.407,-0.36 0.398,-0.383 0.379,-0.4C0.36,-0.418 0.337,-0.427 0.308,-0.427C0.279,-0.427 0.255,-0.418 0.236,-0.4C0.217,-0.382 0.206,-0.359 0.205,-0.332Z" style="fill-rule:nonzero;"/>
            </g>
            <g transform="matrix(114.073,0,0,114.073,428.238,370.073)">
                <path d="M0.229,-0.311L0.229,0L0.055,0L0.055,-0.545L0.22,-0.545L0.22,-0.445L0.226,-0.445C0.238,-0.478 0.259,-0.505 0.288,-0.524C0.317,-0.543 0.352,-0.553 0.392,-0.553C0.43,-0.553 0.464,-0.544 0.492,-0.527C0.52,-0.51 0.542,-0.486 0.558,-0.455C0.574,-0.424 0.582,-0.389 0.581,-0.348L0.581,0L0.408,0L0.408,-0.314C0.408,-0.344 0.4,-0.368 0.385,-0.385C0.369,-0.402 0.348,-0.41 0.32,-0.41C0.293,-0.41 0.271,-0.401 0.254,-0.384C0.237,-0.366 0.229,-0.342 0.229,-0.311Z" style="fill-rule:nonzero;"/>
            </g>
            <g transform="matrix(114.073,0,0,114.073,499.316,370.073)">
                <path d="M0.31,0.01C0.252,0.01 0.203,-0.002 0.162,-0.025C0.121,-0.049 0.089,-0.082 0.067,-0.124C0.045,-0.167 0.034,-0.216 0.034,-0.271C0.034,-0.327 0.045,-0.376 0.067,-0.418C0.089,-0.46 0.121,-0.493 0.162,-0.517C0.203,-0.541 0.252,-0.553 0.309,-0.553C0.36,-0.553 0.404,-0.543 0.441,-0.525C0.479,-0.507 0.508,-0.481 0.529,-0.448C0.55,-0.415 0.562,-0.376 0.563,-0.331L0.401,-0.331C0.397,-0.359 0.388,-0.381 0.372,-0.397C0.357,-0.413 0.337,-0.42 0.312,-0.42C0.281,-0.42 0.257,-0.408 0.239,-0.383C0.22,-0.357 0.211,-0.321 0.211,-0.273C0.211,-0.224 0.22,-0.187 0.238,-0.162C0.257,-0.137 0.281,-0.124 0.312,-0.124C0.336,-0.124 0.356,-0.132 0.372,-0.147C0.388,-0.163 0.397,-0.185 0.401,-0.214L0.563,-0.214C0.561,-0.169 0.55,-0.129 0.529,-0.096C0.509,-0.062 0.48,-0.036 0.442,-0.018C0.405,0.001 0.361,0.01 0.31,0.01Z" style="fill-rule:nonzero;"/>
            </g>
            <g transform="matrix(114.073,0,0,114.073,566.141,370.073)">
                <path d="M0.31,0.01C0.224,0.01 0.157,-0.015 0.108,-0.065C0.059,-0.115 0.034,-0.183 0.034,-0.271C0.034,-0.327 0.045,-0.376 0.067,-0.419C0.09,-0.461 0.121,-0.494 0.162,-0.517C0.202,-0.541 0.25,-0.553 0.305,-0.553C0.356,-0.553 0.402,-0.542 0.442,-0.52C0.482,-0.499 0.513,-0.468 0.535,-0.426C0.558,-0.385 0.569,-0.334 0.569,-0.274L0.569,-0.231L0.205,-0.231L0.205,-0.226C0.205,-0.193 0.215,-0.166 0.234,-0.146C0.253,-0.125 0.28,-0.115 0.313,-0.115C0.336,-0.115 0.356,-0.12 0.373,-0.129C0.389,-0.139 0.401,-0.153 0.408,-0.171L0.567,-0.166C0.557,-0.113 0.53,-0.07 0.485,-0.038C0.44,-0.006 0.382,0.01 0.31,0.01ZM0.205,-0.332L0.407,-0.332C0.407,-0.36 0.398,-0.383 0.379,-0.4C0.36,-0.418 0.337,-0.427 0.308,-0.427C0.279,-0.427 0.255,-0.418 0.236,-0.4C0.217,-0.382 0.206,-0.359 0.205,-0.332Z" style="fill-rule:nonzero;"/>
            </g>
        </g>
    </g>
</svg>
